# xmcd
#
# Track frame offsets:
#   150
#   19958
#   38342
#   56980
#   75461
#   92532
#   108969
#   137086
#   151600
#   171238
#   188088
#   200929
#   216981
#   236566
#   254652
#   274948
#   294278
#   312813
#
# Disc length: 4437 seconds
#
# Revision: 0
# Processed by: cddbd v1.5.1PL2 Copyright (c) Steve Scherf et al.
# Submitted via: GXTranscoder 2.0.1939
#
DISCID=fc115312
DTITLE=Anggun - Test
DYEAR=1900
DGENRE=Blues
TTITLE0=Qui sait
TTITLE1=By the Moon
TTITLE2=Forbidden Love
TTITLE3=Life on Mars
TTITLE4=Stil reminds me
TTITLE5=Comme un privilege
TTITLE6=Summer in Paris
TTITLE7=Broken Dream
TTITLE8=Qui sait
TTITLE9=Breathing
TTITLE10=Ocen Love
TTITLE11=On the breath of an Angel
TTITLE12=Snow on the sahara
TTITLE13=Memory of you
TTITLE14=Kembali
TTITLE15=Deep Blue Sea
TTITLE16=Au Nom De La Lune
TTITLE17=Forbidden Love
EXTD=
EXTT0=
EXTT1=
EXTT2=
EXTT3=
EXTT4=
EXTT5=
EXTT6=
EXTT7=
EXTT8=
EXTT9=
EXTT10=
EXTT11=
EXTT12=
EXTT13=
EXTT14=
EXTT15=
EXTT16=
EXTT17=
PLAYORDER=
